<svg id="图层_1" data-name="图层 1" xmlns="http://www.w3.org/2000/svg" viewBox="0 0 480 640"><defs><style>.cls-1,.cls-3{fill:#fff;}.cls-2{fill:#e19cab;}.cls-3{font-size:50px;font-family:Futura-Bold, Futura;font-weight:700;}</style></defs><path class="cls-1" d="M222,364.1a27.79,27.79,0,0,1,9.75-18c7.3-5.9,15.4-5.9,18.69-5.84a28.52,28.52,0,0,1,28.7,24.38Z"/><path class="cls-2" d="M196.08,171.59c-5.76,1.85-6.45,6.87-12,13S169.24,197,151.38,199a36.18,36.18,0,0,1,.51-13.71c3.25-13.85,14-21.31,17.27-23.62A39.59,39.59,0,0,1,188,154.07c12.79-1.4,22.52,4.59,27.43,7.62,16.72,10.29,23.1,26.81,25.14,33L238.75,215a72.51,72.51,0,0,0-3.56-11.17c-1.8-4.4-5.25-12.81-12.44-20.07C220.42,181.44,207.13,168,196.08,171.59Z"/><path class="cls-2" d="M245.35,218.58a83.75,83.75,0,0,1,3.81-30.73,78.31,78.31,0,0,1,7.11-16c3.82-6.38,13-21.88,31.24-27.69a49.63,49.63,0,0,1,19.81-2,69.23,69.23,0,0,1-3.81,18c-4.2,11.76-10.76,19.83-16,26.16-9.7,11.72-15.27,14.13-20.32,25.15a54.84,54.84,0,0,0-3.55,10.41l-5.34-2a83.9,83.9,0,0,1,2.54-8.13c4.57-12.37,10.46-19.32,18-30.22,3.59-5.17,8.52-12.63,14-22.1a44.51,44.51,0,0,0-9.65,3.81c-13.76,7.4-19.85,20.23-23.87,28.7a89.36,89.36,0,0,0-7.87,26.92Z"/><path class="cls-2" d="M181.6,198.26l1.27,147.3A29.91,29.91,0,0,0,188.21,359c6.63,9.17,16.47,11.43,19,11.94h69.6a35.17,35.17,0,0,0,20.53-13.4,33.4,33.4,0,0,0,6.38-23.17,32.13,32.13,0,0,0-10.33-20.19,31.27,31.27,0,0,0-12.52-6.73H222.75A52.55,52.55,0,0,1,194.81,291a10.08,10.08,0,0,0,6.86-5.08l-3-2.8-6.35,3.56a15.57,15.57,0,0,1-3.05-5.08c-.74-2.07-1.64-4.57-.5-6.35,1-1.56,2.55-1,4.31-3a5.17,5.17,0,0,0,1.53-3.55c-.19-2-2.46-3.77-5.59-4.32.68-1.61,1.35-3.22,2-4.82a29.7,29.7,0,0,1,6.35,2.79c5.13,3,6.74,6,10.16,8.63,2.54,1.94,6.74,4.16,13.71,4.58H270.5a19.86,19.86,0,0,0,8.63-3.81c5.11-4,6.62-9.54,7.62-13.21a29.62,29.62,0,0,0,.76-14c-2.78-13.12-15.74-19.25-17.52-20.06a46.12,46.12,0,0,1,4.31-11.68,46.59,46.59,0,0,1,11.43-14,62.22,62.22,0,0,1,13.21,6.6,56.11,56.11,0,0,1,19.3,20.32,50.5,50.5,0,0,1,6.35,23.11c.38,21.57-14.81,36.11-17.78,38.86a47.1,47.1,0,0,1,13.46,7.11c14.2,10.77,18.18,26.77,19.3,34,1,6.44,2.73,25.28-10.41,41.9-12.94,16.36-31.2,19.07-35.05,19.56H210.54a57.92,57.92,0,0,1-16-4.57,50.28,50.28,0,0,1-18.25-13.06,47.74,47.74,0,0,1-11-27.32V203.59l5.33-1.52Z"/><path class="cls-2" d="M188.46,190.89A70.9,70.9,0,0,1,201.92,196c6.13,3.07,14.17,7.09,19.81,15.75a36.75,36.75,0,0,1,4.83,11.17l4.57-2.54a49.72,49.72,0,0,0-36.57-37.08Z"/><circle class="cls-1" cx="225.65" cy="255.27" r="7.24"/><path class="cls-2" d="M209,309.5a54.13,54.13,0,0,0-6.85,11.43c-1.87,4.22-10.34,23.37-1,36.31a23.25,23.25,0,0,0,8.64,7.18h7.6a58.37,58.37,0,0,1-9-29.79,57.64,57.64,0,0,1,4.18-22.71Z"/><path class="cls-2" d="M344.14,322.45c-.6,1.06,1.57,2.54,3,6.1.7,1.69,1.08,4.49,1,10.41C348,367.5,332,381.37,332,381.37a41.32,41.32,0,0,1-8.89,5.84,44.06,44.06,0,0,0,17.78-1.78c17.81-5.64,25.59-21,26.79-23.44a47,47,0,0,0,3.43-30.65,13.23,13.23,0,0,1-4.57,4.06,12.23,12.23,0,0,1-2.54,1c-1-3.11-3.43-8.83-9.09-12.12C350.69,321.87,345,320.92,344.14,322.45Z"/><text class="cls-3" transform="translate(146.3 444.96)">B<tspan class="cls-2" x="33.91" y="0">U</tspan><tspan x="72.9" y="0">NB</tspan><tspan class="cls-2" x="149.41" y="0">U</tspan><tspan x="188.4" y="0">N</tspan></text></svg>