<svg id="图层_1" data-name="图层 1" xmlns="http://www.w3.org/2000/svg" viewBox="0 0 480.61 480.17"><defs><style>.cls-1,.cls-3{fill:#fff;}.cls-2{fill:#e19cab;}.cls-3{font-size:50px;font-family:Futura-Bold, Futura;font-weight:700;}</style></defs><path class="cls-1" d="M200.4,280.14a27.73,27.73,0,0,1,9.76-18c7.29-5.91,15.39-5.9,18.68-5.85a28.5,28.5,0,0,1,28.7,24.38Z"/><path class="cls-2" d="M174.49,87.63c-5.76,1.86-6.44,6.88-12,13s-14.89,12.43-32.75,14.44a36.39,36.39,0,0,1,.51-13.71c3.26-13.85,13.95-21.3,17.27-23.62a39.59,39.59,0,0,1,18.8-7.62c12.78-1.4,22.51,4.6,27.42,7.62,16.72,10.29,23.11,26.81,25.15,33q-.9,10.16-1.78,20.31a72.51,72.51,0,0,0-3.56-11.17c-1.8-4.4-5.25-12.81-12.44-20.07C198.84,97.48,185.55,84.08,174.49,87.63Z"/><path class="cls-2" d="M223.76,134.62a83.75,83.75,0,0,1,3.81-30.73,78.91,78.91,0,0,1,7.11-16c3.82-6.38,13-21.87,31.24-27.68a49.5,49.5,0,0,1,19.81-2,68.88,68.88,0,0,1-3.81,18c-4.2,11.75-10.76,19.82-16,26.15-9.69,11.72-15.27,14.13-20.32,25.15a54.84,54.84,0,0,0-3.55,10.41l-5.34-2c.5-1.93,1.31-4.78,2.54-8.13,4.57-12.37,10.47-19.32,18-30.22,3.59-5.17,8.52-12.62,14-22.1a44.51,44.51,0,0,0-9.65,3.81c-13.75,7.41-19.85,20.24-23.87,28.7a89.65,89.65,0,0,0-7.87,26.92Z"/><path class="cls-2" d="M160,114.3l1.27,147.3a29.87,29.87,0,0,0,5.33,13.46c6.63,9.17,16.47,11.43,19,11.94h69.59a35.17,35.17,0,0,0,20.53-13.4,33.43,33.43,0,0,0,6.39-23.17,32.24,32.24,0,0,0-10.33-20.19,31.42,31.42,0,0,0-12.53-6.73H201.16A52.55,52.55,0,0,1,173.22,207a10.08,10.08,0,0,0,6.86-5.08L177,199.13l-6.35,3.55a15.3,15.3,0,0,1-3-5.08c-.75-2.07-1.65-4.56-.51-6.35,1-1.56,2.55-1,4.32-3a5.24,5.24,0,0,0,1.52-3.56c-.19-2-2.45-3.77-5.59-4.32.68-1.61,1.36-3.21,2-4.82a30.22,30.22,0,0,1,6.35,2.79c5.13,3,6.75,6,10.16,8.64,2.54,1.94,6.74,4.15,13.72,4.57h49.27a19.86,19.86,0,0,0,8.63-3.81c5.12-4,6.62-9.54,7.62-13.21a29.62,29.62,0,0,0,.76-14c-2.78-13.12-15.74-19.25-17.52-20.06a46.12,46.12,0,0,1,4.31-11.68,46.73,46.73,0,0,1,11.43-14,62.47,62.47,0,0,1,13.21,6.6,56,56,0,0,1,19.3,20.32A50.5,50.5,0,0,1,303,164.84c.38,21.57-14.8,36.11-17.78,38.86a47.36,47.36,0,0,1,13.46,7.11c14.21,10.77,18.18,26.77,19.3,34,1,6.44,2.74,25.29-10.41,41.91-12.93,16.35-31.2,19.07-35.05,19.55H189a57.53,57.53,0,0,1-16-4.57,50.14,50.14,0,0,1-18.24-13.06c-8.95-10.43-10.58-22.28-11-27.32V119.63l5.34-1.52Z"/><path class="cls-2" d="M166.87,106.94A70.31,70.31,0,0,1,180.33,112c6.14,3.07,14.17,7.09,19.81,15.75A36.43,36.43,0,0,1,205,138.94l4.57-2.54A49.69,49.69,0,0,0,173,99.32Z"/><circle class="cls-1" cx="204.06" cy="171.32" r="7.24"/><path class="cls-2" d="M187.45,225.54A53.67,53.67,0,0,0,180.59,237c-1.87,4.22-10.34,23.37-1,36.31a23.21,23.21,0,0,0,8.65,7.18h7.59a58.37,58.37,0,0,1-9-29.79A57.68,57.68,0,0,1,191,228Z"/><path class="cls-2" d="M322.56,238.49c-.61,1.06,1.56,2.54,3,6.1.7,1.69,1.08,4.49,1,10.41-.2,28.55-16.25,42.41-16.25,42.41a41.42,41.42,0,0,1-8.89,5.84,44,44,0,0,0,17.77-1.77c17.81-5.64,25.59-21,26.79-23.45a47.14,47.14,0,0,0,3.44-30.65,13.22,13.22,0,0,1-4.57,4.06,12.68,12.68,0,0,1-2.54,1c-1-3.11-3.43-8.83-9.1-12.12C329.1,237.91,323.43,237,322.56,238.49Z"/><text class="cls-3" transform="translate(124.5 361.01)">B<tspan class="cls-2" x="33.91" y="0">U</tspan><tspan x="72.9" y="0">NB</tspan><tspan class="cls-2" x="149.41" y="0">U</tspan><tspan x="188.4" y="0">N</tspan></text></svg>